<?xml version="1.0" encoding="UTF-8" standalone="no"?><svg xmlns="http://www.w3.org/2000/svg" xmlns:xlink="http://www.w3.org/1999/xlink" contentScriptType="application/ecmascript" contentStyleType="text/css" height="391px" preserveAspectRatio="none" style="width:475px;height:391px;" version="1.1" viewBox="0 0 475 391" width="475px" zoomAndPan="magnify"><defs><filter height="300%" id="fai78yf" width="300%" x="-1" y="-1"><feGaussianBlur result="blurOut" stdDeviation="2.0"/><feColorMatrix in="blurOut" result="blurOut2" type="matrix" values="0 0 0 0 0 0 0 0 0 0 0 0 0 0 0 0 0 0 .4 0"/><feOffset dx="4.0" dy="4.0" in="blurOut2" result="blurOut3"/><feBlend in="SourceGraphic" in2="blurOut3" mode="normal"/></filter></defs><g><!--class ICancelable--><rect fill="#FEFECE" filter="url(#fai78yf)" height="75.6719" style="stroke: #A80036; stroke-width: 1.5;" width="100" x="37" y="300"/><ellipse cx="52" cy="316" fill="#B4A7E5" rx="11" ry="11" style="stroke: #A80036; stroke-width: 1.0;"/><path d="M52.9531,312.6406 L52.9531,319.2969 L54.6719,319.2969 Q55.2813,319.2969 55.5469,319.5313 Q55.8125,319.7656 55.8125,320.1563 Q55.8125,320.5313 55.5469,320.7656 Q55.2813,321 54.6719,321 L49.5313,321 Q48.9219,321 48.6563,320.7656 Q48.3906,320.5313 48.3906,320.1406 Q48.3906,319.7656 48.6563,319.5313 Q48.9219,319.2969 49.5313,319.2969 L51.25,319.2969 L51.25,312.6406 L49.5313,312.6406 Q48.9219,312.6406 48.6563,312.4063 Q48.3906,312.1719 48.3906,311.7813 Q48.3906,311.4063 48.6563,311.1719 Q48.9219,310.9375 49.5313,310.9375 L54.6719,310.9375 Q55.2813,310.9375 55.5469,311.1719 Q55.8125,311.4063 55.8125,311.7813 Q55.8125,312.1719 55.5469,312.4063 Q55.2813,312.6406 54.6719,312.6406 L52.9531,312.6406 Z "/><text fill="#000000" font-family="sans-serif" font-size="12" font-style="italic" lengthAdjust="spacingAndGlyphs" textLength="68" x="66" y="320.9102">ICancelable</text><line style="stroke: #A80036; stroke-width: 1.5;" x1="38" x2="136" y1="332" y2="332"/><line style="stroke: #A80036; stroke-width: 1.5;" x1="38" x2="136" y1="340" y2="340"/><ellipse cx="48" cy="352.418" fill="#84BE84" rx="3" ry="3" style="stroke: #038048; stroke-width: 1.0;"/><text fill="#000000" font-family="sans-serif" font-size="11" font-style="italic" lengthAdjust="spacingAndGlyphs" textLength="47" x="57" y="355.4189">bool Do()</text><ellipse cx="48" cy="366.2539" fill="#84BE84" rx="3" ry="3" style="stroke: #038048; stroke-width: 1.0;"/><text fill="#000000" font-family="sans-serif" font-size="11" font-style="italic" lengthAdjust="spacingAndGlyphs" textLength="66" x="57" y="369.2549">void Cancel()</text><!--class CancelableProcessBase--><rect fill="#FEFECE" filter="url(#fai78yf)" height="103.3438" style="stroke: #A80036; stroke-width: 1.5;" width="168" x="6" y="130"/><ellipse cx="21" cy="146" fill="#A9DCDF" rx="11" ry="11" style="stroke: #A80036; stroke-width: 1.0;"/><path d="M23.1875,147.7656 L19.0469,147.7656 L18.625,148.7969 L19.0469,148.7969 Q19.6563,148.7969 19.9219,149.0313 Q20.1875,149.2656 20.1875,149.6563 Q20.1875,150.0313 19.9219,150.2656 Q19.6563,150.5 19.0469,150.5 L16.75,150.5 Q16.1406,150.5 15.8828,150.2656 Q15.625,150.0313 15.625,149.6406 Q15.625,149.2656 15.8984,149.0234 Q16.1719,148.7813 16.7969,148.7969 L19.4688,142.1406 L18.3594,142.1406 Q17.75,142.1406 17.4844,141.9063 Q17.2188,141.6719 17.2188,141.2813 Q17.2188,140.9063 17.4844,140.6719 Q17.75,140.4375 18.3594,140.4375 L22.0313,140.4375 L25.4219,148.7969 Q26.0156,148.7969 26.2031,148.9375 Q26.5938,149.2031 26.5938,149.6563 Q26.5938,150.0313 26.3359,150.2656 Q26.0781,150.5 25.4688,150.5 L23.1719,150.5 Q22.5625,150.5 22.2969,150.2656 Q22.0313,150.0313 22.0313,149.6406 Q22.0313,149.2656 22.2969,149.0313 Q22.5625,148.7969 23.1719,148.7969 L23.5938,148.7969 L23.1875,147.7656 Z M22.4688,146.0625 L21.1094,142.6875 L19.7344,146.0625 L22.4688,146.0625 Z "/><text fill="#000000" font-family="sans-serif" font-size="12" font-style="italic" lengthAdjust="spacingAndGlyphs" textLength="136" x="35" y="150.9102">CancelableProcessBase</text><line style="stroke: #A80036; stroke-width: 1.5;" x1="7" x2="173" y1="162" y2="162"/><line style="stroke: #A80036; stroke-width: 1.5;" x1="7" x2="173" y1="170" y2="170"/><ellipse cx="17" cy="182.418" fill="#84BE84" rx="3" ry="3" style="stroke: #038048; stroke-width: 1.0;"/><text fill="#000000" font-family="sans-serif" font-size="11" lengthAdjust="spacingAndGlyphs" textLength="44" x="26" y="185.4189">bool Do()</text><ellipse cx="17" cy="196.2539" fill="#84BE84" rx="3" ry="3" style="stroke: #038048; stroke-width: 1.0;"/><text fill="#000000" font-family="sans-serif" font-size="11" lengthAdjust="spacingAndGlyphs" textLength="64" x="26" y="199.2549">void Cancel()</text><polygon fill="#FFFF44" points="17,205.0898,21,209.0898,17,213.0898,13,209.0898" style="stroke: #B38D22; stroke-width: 1.0;"/><text fill="#000000" font-family="sans-serif" font-size="11" font-style="italic" lengthAdjust="spacingAndGlyphs" textLength="68" x="26" y="213.0908">bool DoImpl()</text><polygon fill="#FFFF44" points="17,218.9258,21,222.9258,17,226.9258,13,222.9258" style="stroke: #B38D22; stroke-width: 1.0;"/><text fill="#000000" font-family="sans-serif" font-size="11" lengthAdjust="spacingAndGlyphs" textLength="127" x="26" y="226.9268">bool ShouldCancel() const</text><!--class ConcreteProcess--><rect fill="#FEFECE" filter="url(#fai78yf)" height="61.8359" style="stroke: #A80036; stroke-width: 1.5;" width="128" x="37" y="8"/><ellipse cx="52" cy="24" fill="#ADD1B2" rx="11" ry="11" style="stroke: #A80036; stroke-width: 1.0;"/><path d="M54.7656,19.875 Q54.9219,19.6563 55.1094,19.5469 Q55.2969,19.4375 55.5156,19.4375 Q55.8906,19.4375 56.125,19.6953 Q56.3594,19.9531 56.3594,20.5625 L56.3594,22.0156 Q56.3594,22.625 56.125,22.8906 Q55.8906,23.1563 55.5156,23.1563 Q55.1719,23.1563 54.9688,22.9531 Q54.7656,22.7656 54.6563,22.25 Q54.6094,21.8906 54.4219,21.7031 Q54.0938,21.3281 53.4844,21.1094 Q52.875,20.8906 52.25,20.8906 Q51.4844,20.8906 50.8516,21.2188 Q50.2188,21.5469 49.7266,22.2969 Q49.2344,23.0469 49.2344,24.0781 L49.2344,25.1719 Q49.2344,26.4063 50.125,27.2266 Q51.0156,28.0469 52.6094,28.0469 Q53.5469,28.0469 54.2031,27.7969 Q54.5938,27.6406 55.0156,27.2031 Q55.2813,26.9375 55.4297,26.8594 Q55.5781,26.7813 55.7813,26.7813 Q56.1094,26.7813 56.3672,27.0391 Q56.625,27.2969 56.625,27.6406 Q56.625,27.9844 56.2813,28.3906 Q55.7813,28.9688 54.9844,29.2969 Q53.9063,29.75 52.6094,29.75 Q51.0938,29.75 49.8906,29.125 Q48.9063,28.625 48.2188,27.5547 Q47.5313,26.4844 47.5313,25.2031 L47.5313,24.0469 Q47.5313,22.7188 48.1484,21.5703 Q48.7656,20.4219 49.8594,19.8047 Q50.9531,19.1875 52.1875,19.1875 Q52.9219,19.1875 53.5703,19.3516 Q54.2188,19.5156 54.7656,19.875 Z "/><text fill="#000000" font-family="sans-serif" font-size="12" lengthAdjust="spacingAndGlyphs" textLength="96" x="66" y="28.9102">ConcreteProcess</text><line style="stroke: #A80036; stroke-width: 1.5;" x1="38" x2="164" y1="40" y2="40"/><line style="stroke: #A80036; stroke-width: 1.5;" x1="38" x2="164" y1="48" y2="48"/><rect fill="#F24D5C" height="6" style="stroke: #C82930; stroke-width: 1.0;" width="6" x="45" y="57.418"/><text fill="#000000" font-family="sans-serif" font-size="11" lengthAdjust="spacingAndGlyphs" textLength="62" x="57" y="63.4189">bool DoImpl()</text><!--class CProgressDialog--><rect fill="#FEFECE" filter="url(#fai78yf)" height="89.5078" style="stroke: #A80036; stroke-width: 1.5;" width="294" x="172" y="293"/><ellipse cx="266.75" cy="309" fill="#ADD1B2" rx="11" ry="11" style="stroke: #A80036; stroke-width: 1.0;"/><path d="M269.5156,304.875 Q269.6719,304.6563 269.8594,304.5469 Q270.0469,304.4375 270.2656,304.4375 Q270.6406,304.4375 270.875,304.6953 Q271.1094,304.9531 271.1094,305.5625 L271.1094,307.0156 Q271.1094,307.625 270.875,307.8906 Q270.6406,308.1563 270.2656,308.1563 Q269.9219,308.1563 269.7188,307.9531 Q269.5156,307.7656 269.4063,307.25 Q269.3594,306.8906 269.1719,306.7031 Q268.8438,306.3281 268.2344,306.1094 Q267.625,305.8906 267,305.8906 Q266.2344,305.8906 265.6016,306.2188 Q264.9688,306.5469 264.4766,307.2969 Q263.9844,308.0469 263.9844,309.0781 L263.9844,310.1719 Q263.9844,311.4063 264.875,312.2266 Q265.7656,313.0469 267.3594,313.0469 Q268.2969,313.0469 268.9531,312.7969 Q269.3438,312.6406 269.7656,312.2031 Q270.0313,311.9375 270.1797,311.8594 Q270.3281,311.7813 270.5313,311.7813 Q270.8594,311.7813 271.1172,312.0391 Q271.375,312.2969 271.375,312.6406 Q271.375,312.9844 271.0313,313.3906 Q270.5313,313.9688 269.7344,314.2969 Q268.6563,314.75 267.3594,314.75 Q265.8438,314.75 264.6406,314.125 Q263.6563,313.625 262.9688,312.5547 Q262.2813,311.4844 262.2813,310.2031 L262.2813,309.0469 Q262.2813,307.7188 262.8984,306.5703 Q263.5156,305.4219 264.6094,304.8047 Q265.7031,304.1875 266.9375,304.1875 Q267.6719,304.1875 268.3203,304.3516 Q268.9688,304.5156 269.5156,304.875 Z "/><text fill="#000000" font-family="sans-serif" font-size="12" lengthAdjust="spacingAndGlyphs" textLength="96" x="287.25" y="313.9102">CProgressDialog</text><line style="stroke: #A80036; stroke-width: 1.5;" x1="173" x2="465" y1="325" y2="325"/><line style="stroke: #A80036; stroke-width: 1.5;" x1="173" x2="465" y1="333" y2="333"/><ellipse cx="183" cy="345.418" fill="#84BE84" rx="3" ry="3" style="stroke: #038048; stroke-width: 1.0;"/><text fill="#000000" font-family="sans-serif" font-size="11" lengthAdjust="spacingAndGlyphs" textLength="268" x="192" y="348.4189">CProgressDialog(CWnd*, std::shared_ptr&lt;ICancelable&gt;)</text><polygon fill="#FFFF44" points="183,354.2539,187,358.2539,183,362.2539,179,358.2539" style="stroke: #B38D22; stroke-width: 1.0;"/><text fill="#000000" font-family="sans-serif" font-size="11" lengthAdjust="spacingAndGlyphs" textLength="96" x="192" y="362.2549">BOOL OnInitDialog()</text><ellipse cx="183" cy="373.0898" fill="#84BE84" rx="3" ry="3" style="stroke: #038048; stroke-width: 1.0;"/><text fill="#000000" font-family="sans-serif" font-size="11" lengthAdjust="spacingAndGlyphs" textLength="125" x="192" y="376.0908">void OnBnClickedCancel()</text><!--class MainDialog--><rect fill="#FEFECE" filter="url(#fai78yf)" height="61.8359" style="stroke: #A80036; stroke-width: 1.5;" width="174" x="206" y="8"/><ellipse cx="257.75" cy="24" fill="#ADD1B2" rx="11" ry="11" style="stroke: #A80036; stroke-width: 1.0;"/><path d="M260.5156,19.875 Q260.6719,19.6563 260.8594,19.5469 Q261.0469,19.4375 261.2656,19.4375 Q261.6406,19.4375 261.875,19.6953 Q262.1094,19.9531 262.1094,20.5625 L262.1094,22.0156 Q262.1094,22.625 261.875,22.8906 Q261.6406,23.1563 261.2656,23.1563 Q260.9219,23.1563 260.7188,22.9531 Q260.5156,22.7656 260.4063,22.25 Q260.3594,21.8906 260.1719,21.7031 Q259.8438,21.3281 259.2344,21.1094 Q258.625,20.8906 258,20.8906 Q257.2344,20.8906 256.6016,21.2188 Q255.9688,21.5469 255.4766,22.2969 Q254.9844,23.0469 254.9844,24.0781 L254.9844,25.1719 Q254.9844,26.4063 255.875,27.2266 Q256.7656,28.0469 258.3594,28.0469 Q259.2969,28.0469 259.9531,27.7969 Q260.3438,27.6406 260.7656,27.2031 Q261.0313,26.9375 261.1797,26.8594 Q261.3281,26.7813 261.5313,26.7813 Q261.8594,26.7813 262.1172,27.0391 Q262.375,27.2969 262.375,27.6406 Q262.375,27.9844 262.0313,28.3906 Q261.5313,28.9688 260.7344,29.2969 Q259.6563,29.75 258.3594,29.75 Q256.8438,29.75 255.6406,29.125 Q254.6563,28.625 253.9688,27.5547 Q253.2813,26.4844 253.2813,25.2031 L253.2813,24.0469 Q253.2813,22.7188 253.8984,21.5703 Q254.5156,20.4219 255.6094,19.8047 Q256.7031,19.1875 257.9375,19.1875 Q258.6719,19.1875 259.3203,19.3516 Q259.9688,19.5156 260.5156,19.875 Z "/><text fill="#000000" font-family="sans-serif" font-size="12" lengthAdjust="spacingAndGlyphs" textLength="62" x="278.25" y="28.9102">MainDialog</text><line style="stroke: #A80036; stroke-width: 1.5;" x1="207" x2="379" y1="40" y2="40"/><line style="stroke: #A80036; stroke-width: 1.5;" x1="207" x2="379" y1="48" y2="48"/><ellipse cx="217" cy="60.418" fill="#84BE84" rx="3" ry="3" style="stroke: #038048; stroke-width: 1.0;"/><text fill="#000000" font-family="sans-serif" font-size="11" lengthAdjust="spacingAndGlyphs" textLength="148" x="226" y="63.4189">void OnBnClickedBtnProcess()</text><path d="M89.0177,233.089 C88.7303,247.888 88.4141,264.176 88.1189,279.377 " fill="none" style="stroke: #A80036; stroke-width: 1.0; stroke-dasharray: 7.0,7.0;"/><polygon fill="none" points="95.1146,279.672,87.7275,299.5321,81.1172,279.4,95.1146,279.672" style="stroke: #A80036; stroke-width: 1.0;"/><path d="M98.6402,70.141 C97.7241,81.842 96.6331,95.777 95.54,109.739 " fill="none" style="stroke: #A80036; stroke-width: 1.0;"/><polygon fill="none" points="102.497,110.564,93.9572,129.956,88.5397,109.471,102.497,110.564" style="stroke: #A80036; stroke-width: 1.0;"/><path d="M137.297,338 C148.772,338 160.246,338 171.721,338 " fill="none" style="stroke: #A80036; stroke-width: 1.0; stroke-dasharray: 7.0,7.0;"/><path d="M165.125,39 C178.612,39 192.099,39 205.585,39 " fill="none" style="stroke: #A80036; stroke-width: 1.0; stroke-dasharray: 7.0,7.0;"/><path d="M295.636,70.112 C300.245,122.76 309.786,231.744 315.14,292.9056 " fill="none" style="stroke: #A80036; stroke-width: 1.0; stroke-dasharray: 7.0,7.0;"/></g></svg>