<?xml version="1.0" encoding="UTF-8" standalone="no"?><svg xmlns="http://www.w3.org/2000/svg" xmlns:xlink="http://www.w3.org/1999/xlink" contentScriptType="application/ecmascript" contentStyleType="text/css" height="982px" preserveAspectRatio="none" style="width:766px;height:982px;" version="1.1" viewBox="0 0 766 982" width="766px" zoomAndPan="magnify"><defs><filter height="300%" id="f7altbn" width="300%" x="-1" y="-1"><feGaussianBlur result="blurOut" stdDeviation="2.0"/><feColorMatrix in="blurOut" result="blurOut2" type="matrix" values="0 0 0 0 0 0 0 0 0 0 0 0 0 0 0 0 0 0 .4 0"/><feOffset dx="4.0" dy="4.0" in="blurOut2" result="blurOut3"/><feBlend in="SourceGraphic" in2="blurOut3" mode="normal"/></filter></defs><g><rect fill="#FFFFFF" filter="url(#f7altbn)" height="752.3984" style="stroke: #A80036; stroke-width: 1.0;" width="10" x="168" y="119.6094"/><rect fill="#FFFFFF" filter="url(#f7altbn)" height="714.0469" style="stroke: #A80036; stroke-width: 1.0;" width="10" x="173" y="157.9609"/><rect fill="#FFFFFF" filter="url(#f7altbn)" height="608.0859" style="stroke: #A80036; stroke-width: 1.0;" width="10" x="336" y="263.9219"/><rect fill="#FFFFFF" filter="url(#f7altbn)" height="28" style="stroke: #A80036; stroke-width: 1.0;" width="10" x="341" y="369.1406"/><rect fill="#FFFFFF" filter="url(#f7altbn)" height="385.1641" style="stroke: #A80036; stroke-width: 1.0;" width="10" x="341" y="486.8438"/><rect fill="#FFFFFF" filter="url(#f7altbn)" height="71.3516" style="stroke: #A80036; stroke-width: 1.0;" width="10" x="346" y="800.6563"/><rect fill="#FFFFFF" filter="url(#f7altbn)" height="28" style="stroke: #A80036; stroke-width: 1.0;" width="10" x="351" y="844.0078"/><rect fill="#FFFFFF" filter="url(#f7altbn)" height="577.8281" style="stroke: #A80036; stroke-width: 1.0;" width="10" x="503" y="310.5313"/><rect fill="#FFFFFF" filter="url(#f7altbn)" height="668.6953" style="stroke: #A80036; stroke-width: 1.0;" width="10" x="630" y="203.3125"/><rect fill="#FFFFFF" filter="url(#f7altbn)" height="71.3516" style="stroke: #A80036; stroke-width: 1.0;" width="10" x="635" y="616.25"/><rect fill="#FFFFFF" filter="url(#f7altbn)" height="28" style="stroke: #A80036; stroke-width: 1.0;" width="10" x="640" y="659.6016"/><rect fill="#FEFECE" filter="url(#f7altbn)" height="31.6094" style="stroke: #A80036; stroke-width: 1.5;" width="123" x="571.5" y="171.3125"/><text fill="#000000" font-family="sans-serif" font-size="14" lengthAdjust="spacingAndGlyphs" textLength="109" x="578.5" y="192.8457">ConcreteProcess</text><rect fill="#FEFECE" filter="url(#f7altbn)" height="31.6094" style="stroke: #A80036; stroke-width: 1.5;" width="121" x="278.5" y="231.9219"/><text fill="#000000" font-family="sans-serif" font-size="14" lengthAdjust="spacingAndGlyphs" textLength="107" x="285.5" y="253.4551">CProgressDialog</text><rect fill="#FEFECE" filter="url(#f7altbn)" height="31.6094" style="stroke: #A80036; stroke-width: 1.5;" width="103" x="454.5" y="278.5313"/><text fill="#000000" font-family="sans-serif" font-size="14" lengthAdjust="spacingAndGlyphs" textLength="89" x="461.5" y="300.0645">CProgressCtrl</text><rect fill="#FFFFFF" filter="url(#f7altbn)" height="226.1094" style="stroke: #000000; stroke-width: 2.0;" width="488.5" x="268.5" y="537.5469"/><line style="stroke: #A80036; stroke-width: 1.0; stroke-dasharray: 5.0,5.0;" x1="32" x2="32" y1="87.6094" y2="897.3594"/><line style="stroke: #A80036; stroke-width: 1.0; stroke-dasharray: 5.0,5.0;" x1="173" x2="173" y1="87.6094" y2="897.3594"/><line style="stroke: #A80036; stroke-width: 1.0; stroke-dasharray: 5.0,5.0;" x1="340.5" x2="340.5" y1="265.2266" y2="897.3594"/><line style="stroke: #A80036; stroke-width: 1.0; stroke-dasharray: 5.0,5.0;" x1="507.5" x2="507.5" y1="311.8359" y2="897.3594"/><line style="stroke: #A80036; stroke-width: 1.0; stroke-dasharray: 5.0,5.0;" x1="634.5" x2="634.5" y1="204.6172" y2="897.3594"/><text fill="#000000" font-family="sans-serif" font-size="14" lengthAdjust="spacingAndGlyphs" textLength="42" x="8" y="84.5332">ユーザ</text><ellipse cx="32" cy="13" fill="#FEFECE" filter="url(#f7altbn)" rx="8" ry="8" style="stroke: #A80036; stroke-width: 2.0;"/><path d="M32,21 L32,48 M19,29 L45,29 M32,48 L19,63 M32,48 L45,63 " fill="#FEFECE" filter="url(#f7altbn)" style="stroke: #A80036; stroke-width: 2.0;"/><text fill="#000000" font-family="sans-serif" font-size="14" lengthAdjust="spacingAndGlyphs" textLength="42" x="8" y="910.8926">ユーザ</text><ellipse cx="32" cy="923.9688" fill="#FEFECE" filter="url(#f7altbn)" rx="8" ry="8" style="stroke: #A80036; stroke-width: 2.0;"/><path d="M32,931.9688 L32,958.9688 M19,939.9688 L45,939.9688 M32,958.9688 L19,973.9688 M32,958.9688 L45,973.9688 " fill="#FEFECE" filter="url(#f7altbn)" style="stroke: #A80036; stroke-width: 2.0;"/><rect fill="#FEFECE" filter="url(#f7altbn)" height="31.6094" style="stroke: #A80036; stroke-width: 1.5;" width="84" x="129" y="51"/><text fill="#000000" font-family="sans-serif" font-size="14" lengthAdjust="spacingAndGlyphs" textLength="70" x="136" y="72.5332">MainDialog</text><rect fill="#FEFECE" filter="url(#f7altbn)" height="31.6094" style="stroke: #A80036; stroke-width: 1.5;" width="84" x="129" y="896.3594"/><text fill="#000000" font-family="sans-serif" font-size="14" lengthAdjust="spacingAndGlyphs" textLength="70" x="136" y="917.8926">MainDialog</text><rect fill="#FEFECE" filter="url(#f7altbn)" height="31.6094" style="stroke: #A80036; stroke-width: 1.5;" width="121" x="278.5" y="896.3594"/><text fill="#000000" font-family="sans-serif" font-size="14" lengthAdjust="spacingAndGlyphs" textLength="107" x="285.5" y="917.8926">CProgressDialog</text><rect fill="#FEFECE" filter="url(#f7altbn)" height="31.6094" style="stroke: #A80036; stroke-width: 1.5;" width="103" x="454.5" y="896.3594"/><text fill="#000000" font-family="sans-serif" font-size="14" lengthAdjust="spacingAndGlyphs" textLength="89" x="461.5" y="917.8926">CProgressCtrl</text><rect fill="#FEFECE" filter="url(#f7altbn)" height="31.6094" style="stroke: #A80036; stroke-width: 1.5;" width="123" x="571.5" y="896.3594"/><text fill="#000000" font-family="sans-serif" font-size="14" lengthAdjust="spacingAndGlyphs" textLength="109" x="578.5" y="917.8926">ConcreteProcess</text><rect fill="#FFFFFF" filter="url(#f7altbn)" height="752.3984" style="stroke: #A80036; stroke-width: 1.0;" width="10" x="168" y="119.6094"/><rect fill="#FFFFFF" filter="url(#f7altbn)" height="714.0469" style="stroke: #A80036; stroke-width: 1.0;" width="10" x="173" y="157.9609"/><rect fill="#FFFFFF" filter="url(#f7altbn)" height="608.0859" style="stroke: #A80036; stroke-width: 1.0;" width="10" x="336" y="263.9219"/><rect fill="#FFFFFF" filter="url(#f7altbn)" height="28" style="stroke: #A80036; stroke-width: 1.0;" width="10" x="341" y="369.1406"/><rect fill="#FFFFFF" filter="url(#f7altbn)" height="385.1641" style="stroke: #A80036; stroke-width: 1.0;" width="10" x="341" y="486.8438"/><rect fill="#FFFFFF" filter="url(#f7altbn)" height="71.3516" style="stroke: #A80036; stroke-width: 1.0;" width="10" x="346" y="800.6563"/><rect fill="#FFFFFF" filter="url(#f7altbn)" height="28" style="stroke: #A80036; stroke-width: 1.0;" width="10" x="351" y="844.0078"/><rect fill="#FFFFFF" filter="url(#f7altbn)" height="577.8281" style="stroke: #A80036; stroke-width: 1.0;" width="10" x="503" y="310.5313"/><rect fill="#FFFFFF" filter="url(#f7altbn)" height="668.6953" style="stroke: #A80036; stroke-width: 1.0;" width="10" x="630" y="203.3125"/><rect fill="#FFFFFF" filter="url(#f7altbn)" height="71.3516" style="stroke: #A80036; stroke-width: 1.0;" width="10" x="635" y="616.25"/><rect fill="#FFFFFF" filter="url(#f7altbn)" height="28" style="stroke: #A80036; stroke-width: 1.0;" width="10" x="640" y="659.6016"/><polygon fill="#A80036" points="156,115.6094,166,119.6094,156,123.6094,160,119.6094" style="stroke: #A80036; stroke-width: 1.0;"/><line style="stroke: #A80036; stroke-width: 1.0;" x1="32" x2="162" y1="119.6094" y2="119.6094"/><text fill="#000000" font-family="sans-serif" font-size="13" lengthAdjust="spacingAndGlyphs" textLength="117" x="39" y="115.1045">処理開始ボタン押下</text><line style="stroke: #A80036; stroke-width: 1.0;" x1="178" x2="225" y1="145.3125" y2="145.3125"/><line style="stroke: #A80036; stroke-width: 1.0;" x1="225" x2="225" y1="145.3125" y2="158.3125"/><line style="stroke: #A80036; stroke-width: 1.0;" x1="184" x2="225" y1="158.3125" y2="158.3125"/><polygon fill="#A80036" points="194,154.3125,184,158.3125,194,162.3125,190,158.3125" style="stroke: #A80036; stroke-width: 1.0;"/><text fill="#000000" font-family="sans-serif" font-size="13" lengthAdjust="spacingAndGlyphs" textLength="144" x="190" y="140.4561">OnBnClickedBtnProcess</text><polygon fill="#A80036" points="559.5,189.3125,569.5,193.3125,559.5,197.3125,563.5,193.3125" style="stroke: #A80036; stroke-width: 1.0;"/><line style="stroke: #A80036; stroke-width: 1.0;" x1="183" x2="565.5" y1="193.3125" y2="193.3125"/><text fill="#000000" font-family="sans-serif" font-size="13" lengthAdjust="spacingAndGlyphs" textLength="68" x="190" y="188.8076">&lt;&lt;create&gt;&gt;</text><rect fill="#FEFECE" filter="url(#f7altbn)" height="31.6094" style="stroke: #A80036; stroke-width: 1.5;" width="123" x="571.5" y="171.3125"/><text fill="#000000" font-family="sans-serif" font-size="14" lengthAdjust="spacingAndGlyphs" textLength="109" x="578.5" y="192.8457">ConcreteProcess</text><polygon fill="#A80036" points="194,219.9219,184,223.9219,194,227.9219,190,223.9219" style="stroke: #A80036; stroke-width: 1.0;"/><line style="stroke: #A80036; stroke-width: 1.0; stroke-dasharray: 2.0,2.0;" x1="188" x2="629" y1="223.9219" y2="223.9219"/><polygon fill="#A80036" points="266.5,249.9219,276.5,253.9219,266.5,257.9219,270.5,253.9219" style="stroke: #A80036; stroke-width: 1.0;"/><line style="stroke: #A80036; stroke-width: 1.0;" x1="183" x2="272.5" y1="253.9219" y2="253.9219"/><text fill="#000000" font-family="sans-serif" font-size="13" lengthAdjust="spacingAndGlyphs" textLength="68" x="190" y="249.417">&lt;&lt;create&gt;&gt;</text><rect fill="#FEFECE" filter="url(#f7altbn)" height="31.6094" style="stroke: #A80036; stroke-width: 1.5;" width="121" x="278.5" y="231.9219"/><text fill="#000000" font-family="sans-serif" font-size="14" lengthAdjust="spacingAndGlyphs" textLength="107" x="285.5" y="253.4551">CProgressDialog</text><polygon fill="#A80036" points="442.5,296.5313,452.5,300.5313,442.5,304.5313,446.5,300.5313" style="stroke: #A80036; stroke-width: 1.0;"/><line style="stroke: #A80036; stroke-width: 1.0;" x1="346" x2="448.5" y1="300.5313" y2="300.5313"/><text fill="#000000" font-family="sans-serif" font-size="13" lengthAdjust="spacingAndGlyphs" textLength="68" x="353" y="296.0264">&lt;&lt;create&gt;&gt;</text><rect fill="#FEFECE" filter="url(#f7altbn)" height="31.6094" style="stroke: #A80036; stroke-width: 1.5;" width="103" x="454.5" y="278.5313"/><text fill="#000000" font-family="sans-serif" font-size="14" lengthAdjust="spacingAndGlyphs" textLength="89" x="461.5" y="300.0645">CProgressCtrl</text><polygon fill="#A80036" points="357,327.1406,347,331.1406,357,335.1406,353,331.1406" style="stroke: #A80036; stroke-width: 1.0;"/><line style="stroke: #A80036; stroke-width: 1.0; stroke-dasharray: 2.0,2.0;" x1="351" x2="502" y1="331.1406" y2="331.1406"/><line style="stroke: #A80036; stroke-width: 1.0;" x1="351" x2="393" y1="361.4922" y2="361.4922"/><line style="stroke: #A80036; stroke-width: 1.0;" x1="393" x2="393" y1="361.4922" y2="374.4922"/><line style="stroke: #A80036; stroke-width: 1.0;" x1="352" x2="393" y1="374.4922" y2="374.4922"/><polygon fill="#A80036" points="362,370.4922,352,374.4922,362,378.4922,358,374.4922" style="stroke: #A80036; stroke-width: 1.0;"/><text fill="#000000" font-family="sans-serif" font-size="13" lengthAdjust="spacingAndGlyphs" textLength="73" x="358" y="356.6357">SetupThread</text><polygon fill="#A80036" points="194,414.4922,184,418.4922,194,422.4922,190,418.4922" style="stroke: #A80036; stroke-width: 1.0;"/><line style="stroke: #A80036; stroke-width: 1.0; stroke-dasharray: 2.0,2.0;" x1="188" x2="335" y1="418.4922" y2="418.4922"/><polygon fill="#A80036" points="324,444.4922,334,448.4922,324,452.4922,328,448.4922" style="stroke: #A80036; stroke-width: 1.0;"/><line style="stroke: #A80036; stroke-width: 1.0;" x1="183" x2="330" y1="448.4922" y2="448.4922"/><text fill="#000000" font-family="sans-serif" font-size="13" lengthAdjust="spacingAndGlyphs" textLength="59" x="190" y="443.9873">DoModal()</text><line style="stroke: #A80036; stroke-width: 1.0;" x1="346" x2="393" y1="474.1953" y2="474.1953"/><line style="stroke: #A80036; stroke-width: 1.0;" x1="393" x2="393" y1="474.1953" y2="487.1953"/><line style="stroke: #A80036; stroke-width: 1.0;" x1="352" x2="393" y1="487.1953" y2="487.1953"/><polygon fill="#A80036" points="362,483.1953,352,487.1953,362,491.1953,358,487.1953" style="stroke: #A80036; stroke-width: 1.0;"/><text fill="#000000" font-family="sans-serif" font-size="13" lengthAdjust="spacingAndGlyphs" textLength="70" x="358" y="469.3389">OnInitDialog</text><polygon fill="#A80036" points="491,518.1953,501,522.1953,491,526.1953,495,522.1953" style="stroke: #A80036; stroke-width: 1.0;"/><line style="stroke: #A80036; stroke-width: 1.0;" x1="351" x2="497" y1="522.1953" y2="522.1953"/><text fill="#000000" font-family="sans-serif" font-size="13" lengthAdjust="spacingAndGlyphs" textLength="112" x="358" y="517.6904">SetMarquee(TRUE)</text><rect fill="none" height="226.1094" style="stroke: #000000; stroke-width: 2.0;" width="488.5" x="268.5" y="537.5469"/><polygon fill="#EEEEEE" points="268.5,537.5469,334.5,537.5469,334.5,545.5469,324.5,555.5469,268.5,555.5469,268.5,537.5469" style="stroke: #000000; stroke-width: 2.0;"/><text fill="#000000" font-family="sans-serif" font-size="13" font-weight="bold" lengthAdjust="spacingAndGlyphs" textLength="21" x="283.5" y="552.042">par</text><polygon fill="#A80036" points="618,573.8984,628,577.8984,618,581.8984,622,577.8984" style="stroke: #A80036; stroke-width: 1.0;"/><line style="stroke: #A80036; stroke-width: 1.0;" x1="351" x2="624" y1="577.8984" y2="577.8984"/><text fill="#000000" font-family="sans-serif" font-size="13" lengthAdjust="spacingAndGlyphs" textLength="24" x="358" y="573.3936">Do()</text><line style="stroke: #A80036; stroke-width: 1.0;" x1="640" x2="687" y1="603.6016" y2="603.6016"/><line style="stroke: #A80036; stroke-width: 1.0;" x1="687" x2="687" y1="603.6016" y2="616.6016"/><line style="stroke: #A80036; stroke-width: 1.0;" x1="646" x2="687" y1="616.6016" y2="616.6016"/><polygon fill="#A80036" points="656,612.6016,646,616.6016,656,620.6016,652,616.6016" style="stroke: #A80036; stroke-width: 1.0;"/><text fill="#000000" font-family="sans-serif" font-size="13" lengthAdjust="spacingAndGlyphs" textLength="48" x="652" y="598.7451">DoImpl()</text><line style="stroke: #A80036; stroke-width: 1.0;" x1="650" x2="692" y1="651.9531" y2="651.9531"/><line style="stroke: #A80036; stroke-width: 1.0;" x1="692" x2="692" y1="651.9531" y2="664.9531"/><line style="stroke: #A80036; stroke-width: 1.0;" x1="651" x2="692" y1="664.9531" y2="664.9531"/><polygon fill="#A80036" points="661,660.9531,651,664.9531,661,668.9531,657,664.9531" style="stroke: #A80036; stroke-width: 1.0;"/><text fill="#000000" font-family="sans-serif" font-size="13" lengthAdjust="spacingAndGlyphs" textLength="88" x="657" y="647.0967">ShouldCancel()</text><polygon fill="#A80036" points="362,720.9531,352,724.9531,362,728.9531,358,724.9531" style="stroke: #A80036; stroke-width: 1.0;"/><line style="stroke: #A80036; stroke-width: 1.0; stroke-dasharray: 2.0,2.0;" x1="356" x2="629" y1="724.9531" y2="724.9531"/><text fill="#000000" font-family="sans-serif" font-size="13" lengthAdjust="spacingAndGlyphs" textLength="91" x="368" y="720.4482">終了ステータス</text><polygon fill="#A80036" points="491,751.3047,501,755.3047,491,759.3047,495,755.3047" style="stroke: #A80036; stroke-width: 1.0;"/><line style="stroke: #A80036; stroke-width: 1.0;" x1="351" x2="497" y1="755.3047" y2="755.3047"/><text fill="#000000" font-family="sans-serif" font-size="13" lengthAdjust="spacingAndGlyphs" textLength="120" x="358" y="750.7998">SetMarquee(FALSE)</text><line style="stroke: #A80036; stroke-width: 1.0;" x1="351" x2="398" y1="788.0078" y2="788.0078"/><line style="stroke: #A80036; stroke-width: 1.0;" x1="398" x2="398" y1="788.0078" y2="801.0078"/><line style="stroke: #A80036; stroke-width: 1.0;" x1="357" x2="398" y1="801.0078" y2="801.0078"/><polygon fill="#A80036" points="367,797.0078,357,801.0078,367,805.0078,363,801.0078" style="stroke: #A80036; stroke-width: 1.0;"/><text fill="#000000" font-family="sans-serif" font-size="13" lengthAdjust="spacingAndGlyphs" textLength="138" x="363" y="783.1514">OnCloseProgressDialog</text><line style="stroke: #A80036; stroke-width: 1.0;" x1="361" x2="403" y1="836.3594" y2="836.3594"/><line style="stroke: #A80036; stroke-width: 1.0;" x1="403" x2="403" y1="836.3594" y2="849.3594"/><line style="stroke: #A80036; stroke-width: 1.0;" x1="362" x2="403" y1="849.3594" y2="849.3594"/><polygon fill="#A80036" points="372,845.3594,362,849.3594,372,853.3594,368,849.3594" style="stroke: #A80036; stroke-width: 1.0;"/><text fill="#000000" font-family="sans-serif" font-size="13" lengthAdjust="spacingAndGlyphs" textLength="59" x="368" y="831.5029">EndDialog</text></g></svg>